HIERARCHY
ROOT Hips
{
	OFFSET 0.00000 0.00000 0.00000
	CHANNELS 6 Xposition Yposition Zposition Yrotation Zrotation Xrotation 
	JOINT Lumbar
	{
		OFFSET 0 0 0
		CHANNELS 3 Zrotation Xrotation Yrotation
		JOINT Neck
		{
			OFFSET 0.00 0.2701 0.00
			CHANNELS 3 Zrotation Xrotation Yrotation
			End Site
			{
				OFFSET 0.00 0.1379 0.00
			}
		}
		JOINT RightShoulder
		{
			OFFSET 0.0119 0.2289 0.1181
			CHANNELS 3 Zrotation Xrotation Yrotation
			JOINT RightElbow
			{
				OFFSET 0.00 -0.1475 0.00
				CHANNELS 2 Zrotation Yrotation
				JOINT RightWrist
				{
					OFFSET 0.00 -0.1605 0.00
					CHANNELS 2 Zrotation Xrotation
					End Site
					{
						OFFSET 0.0040 -0.1068 0.0006
					}
				}
			}
		}
		JOINT LeftShoulder
		{
			OFFSET 0.0119 0.2289 -0.1181
			CHANNELS 3 Zrotation Xrotation Yrotation
			JOINT LeftElbow
			{
				OFFSET 0.00 -0.1475 0.00
				CHANNELS 2 Zrotation Yrotation
				JOINT LeftWrist
				{
					OFFSET 0.00 -0.1605 0.00
					CHANNELS 2 Zrotation Xrotation
					End Site
					{
						OFFSET 0.0040 -0.1068 -0.0006
					}
				}
			}
		}
	}
	JOINT RightHip
	{
		OFFSET 0.0316 -0.0424 0.0458
		CHANNELS 3 Zrotation Xrotation Yrotation
		JOINT RightKnee
		{
			OFFSET 0.00 -0.2438 0.00
			CHANNELS 1 Zrotation
			JOINT RightAnkle
			{
				OFFSET 0.00 -0.2449 0.00
				CHANNELS 3 Zrotation Xrotation Yrotation
				End Site
				{
					OFFSET 0.1237 -0.0542 0.0051
				}
			}
		}
	}
	JOINT LeftHip
	{
		OFFSET 0.0316 -0.0424 -0.0458
		CHANNELS 3 Zrotation Xrotation Yrotation
		JOINT LeftKnee
		{
			OFFSET 0.00 -0.2438 0.00
			CHANNELS 1 Zrotation
			JOINT LeftAnkle
			{
				OFFSET 0.00 -0.2449 0.00
				CHANNELS 3 Zrotation Xrotation Yrotation
				End Site
				{
					OFFSET 0.1237 -0.0542 -0.0051
				}
			}
		}
	}
}
MOTION
Frames: 19
Frame Time: 0.02
-0.02846 0.30601 -0.01353 203.47516 0 5.90109 7.14479 3.74491 -0.87975 -36.44762 -13.71265 -14.41996 54.71486 11.96337 14.44473 87.10241 6.0902 75.14415 -20.6499 117.82864 22.38422 -52.3825 94.38905 -44.71851 53.75735 6.71143 9.99027 -3.32941 -11.99796 -116.06695 19.45412 16.7848 7.89417 69.79462 -12.43386 1.96083 -120.97742 19.76022 -18.51535 -8.3372
-0.03026 0.30624 -0.01457 203.1124 0 6.05217 7.96278 3.66771 -0.74208 -36.87007 -13.72128 -14.54553 54.61116 12.18884 14.98387 86.81786 6.12773 74.97625 -20.61548 117.61766 22.96808 -52.35576 94.54129 -44.29752 54.17851 6.75688 9.84955 -3.18595 -11.68228 -115.87627 19.44806 16.77847 7.91714 69.70152 -12.43318 1.71019 -121.20648 19.76014 -18.49431 -8.30821
-0.03214 0.30655 -0.01549 202.67566 0 6.25017 8.82349 3.55183 -0.56575 -37.2367 -13.74236 -14.68881 54.3208 12.44371 15.70293 86.68939 6.10919 75.08927 -20.63241 117.32938 23.61217 -52.33231 94.83973 -43.863 54.68773 6.80243 9.68872 -3.0981 -11.29746 -115.68813 19.44501 16.78224 7.93706 69.58678 -12.43367 1.4949 -121.42913 19.75967 -18.47147 -8.28035
-0.03398 0.30681 -0.01646 202.27589 0 6.42166 9.66616 3.46075 -0.41161 -37.62781 -13.75717 -14.82103 54.10731 12.68137 16.34844 86.51328 6.11129 75.082 -20.63045 117.07925 24.2306 -52.30818 95.09024 -43.43543 55.13839 6.84863 9.53565 -2.98052 -10.95015 -115.49839 19.4406 16.77755 7.95413 69.48256 -12.43332 1.26358 -121.65746 19.75941 -18.44812 -8.25018
-0.03583 0.30711 -0.01747 201.85934 0 6.61486 10.50758 3.34041 -0.23624 -38.02616 -13.77451 -14.96613 53.9283 12.93767 16.95717 86.23165 6.13454 75.03572 -20.60907 116.81597 24.84479 -52.28049 95.26407 -43.00078 55.66876 6.89228 9.38792 -2.88044 -10.57383 -115.30902 19.43588 16.78766 7.98875 69.37421 -12.43414 1.03286 -121.87549 19.75906 -18.42946 -8.22595
-0.03768 0.30734 -0.01835 201.46182 0 6.77378 11.35976 3.27127 -0.09756 -38.39453 -13.78918 -15.08869 53.63355 13.15955 17.68847 86.21155 6.10079 75.14174 -20.63999 116.56259 25.48114 -52.26102 95.63223 -42.57847 56.05299 6.94126 9.2242 -2.75759 -10.24312 -115.11955 19.43262 16.77006 7.98648 69.26928 -12.43286 0.80905 -122.11232 19.7588 -18.40074 -8.19007
-0.0395 0.30736 -0.01886 201.12677 0 6.83004 12.23375 3.35396 -0.05699 -38.69714 -13.79802 -15.14284 53.05519 13.29935 18.68407 86.85228 5.9153 75.58138 -20.81001 116.3468 26.16134 -52.26383 96.49449 -42.20145 56.01798 7.00324 9.02475 -2.5588 -10.05091 -114.93587 19.43273 16.67163 7.87989 69.18565 -12.42532 0.59494 -122.41002 19.75876 -18.34763 -8.12408
-0.0413 0.3073 -0.01924 200.81509 0 6.84966 13.11577 3.48916 -0.05677 -38.97014 -13.803 -15.17392 52.36814 13.39948 19.80215 87.75604 5.67571 76.16732 -21.02966 116.14524 26.86145 -52.27475 97.54728 -41.8367 55.8318 7.07081 8.80952 -2.33535 -9.90815 -114.75132 19.43424 16.54542 7.73684 69.10546 -12.41567 0.38659 -122.72542 19.75883 -18.28414 -8.04623
-0.04311 0.30727 -0.01967 200.49849 0 6.88379 13.99217 3.59949 -0.0469 -39.25443 -13.80669 -15.21684 51.73721 13.5047 20.88405 88.55502 5.4659 76.70107 -21.22207 115.94277 27.55407 -52.28178 98.5182 -41.46144 55.71062 7.13691 8.59907 -2.12292 -9.7461 -114.56278 19.43507 16.4334 7.61268 69.01939 -12.40712 0.17591 -123.02766 19.75889 -18.22359 -7.97243
-0.04496 0.30725 -0.02011 200.15571 0 6.92838 14.8795 3.71269 -0.00042 -39.54723 -13.82341 -15.255 51.07227 13.66629 21.89074 89.29629 5.23204 77.19053 -21.43621 115.71406 28.24358 -52.28985 99.47832 -41.10546 55.6074 7.19864 8.39724 -1.91283 -9.56842 -114.39174 19.43615 16.31537 7.47886 68.94989 -12.39804 -0.03486 -123.35103 19.75877 -18.17022 -7.90399
-0.0467 0.3072 -0.02052 199.87335 0 6.94211 15.7441 3.83295 -0.03848 -39.81441 -13.81223 -15.29693 50.4537 13.69975 23.07988 90.21919 5.03639 77.79536 -21.61596 115.54451 28.94186 -52.29755 100.4993 -40.71369 55.43065 7.27061 8.17492 -1.69175 -9.43561 -114.18533 19.43702 16.20281 7.35624 68.84804 -12.38953 -0.2444 -123.63503 19.75904 -18.09976 -7.82192
-0.04816 0.30707 -0.02089 199.75811 0 6.87747 16.55446 3.95958 -0.31599 -40.03172 -13.72231 -15.35844 50.00049 13.39752 24.74686 91.56755 4.95751 78.75267 -21.69066 115.53421 29.67314 -52.30297 101.6827 -40.21067 55.07955 7.37077 7.89174 -1.44226 -9.41821 -113.8705 19.43683 16.11458 7.27585 68.64693 -12.38305 -0.45313 -123.80269 19.7605 -17.98224 -7.70207
-0.04951 0.3069 -0.02123 199.70219 0 6.78322 17.33942 4.09175 -0.67452 -40.22202 -13.60493 -15.42372 49.59707 12.96666 26.58915 93.08888 4.9195 79.80817 -21.72849 115.58343 30.40959 -52.30758 102.91189 -39.67384 54.66094 7.48063 7.59007 -1.18313 -9.44404 -113.52216 19.43639 16.03212 7.20746 68.41491 -12.37723 -0.66072 -123.93069 19.76231 -17.84838 -7.56951
-0.0509 0.30675 -0.02158 199.61547 0 6.70366 18.12897 4.22171 -0.98559 -40.41595 -13.50172 -15.48496 49.16415 12.58813 28.35072 94.54073 4.86447 80.76965 -21.78148 115.60623 31.13456 -52.31205 104.09314 -39.15777 54.27803 7.58541 7.30228 -0.93072 -9.44797 -113.19636 19.43614 15.94559 7.13211 68.20315 -12.37111 -0.86832 -124.07909 19.76388 -17.72356 -7.4447
-0.05234 0.30659 -0.02194 199.54551 0 6.61753 18.94842 4.35213 -1.34252 -40.64515 -13.391 -15.55549 48.75443 12.23126 30.13104 95.97226 4.80132 81.93861 -21.8426 115.62691 31.89927 -52.31893 105.39771 -38.61616 53.86802 7.69389 6.99083 -0.66725 -9.46272 -112.83968 19.43561 15.86499 7.06219 67.96542 -12.36484 -1.0781 -124.21833 19.76582 -17.59144 -7.311
-0.05365 0.30645 -0.02229 199.45473 0 6.53865 19.69914 4.48228 -1.62321 -40.79509 -13.28974 -15.60753 48.31205 11.80281 31.89984 97.4725 4.76504 82.70476 -21.87783 115.66583 32.5816 -52.3205 106.45122 -38.12356 53.50122 7.79606 6.72447 -0.42527 -9.46504 -112.53938 19.43557 15.77282 6.98387 67.77419 -12.35913 -1.28283 -124.36669 19.76706 -17.47093 -7.19312
-0.05465 0.30638 -0.02262 199.28948 0 6.48594 20.26846 4.60997 -1.66857 -40.73073 -13.21885 -15.61042 47.74741 11.17763 33.70032 99.21459 4.79747 82.26374 -21.84614 115.74165 33.03947 -52.30765 106.82092 -37.74006 53.26452 7.88566 6.58751 -0.24127 -9.41821 -112.4029 19.43712 15.65575 6.88334 67.7208 -12.35437 -1.47682 -124.55258 19.7663 -17.38502 -7.12056
-0.05551 0.30633 -0.02295 199.10167 0 6.4418 20.76886 4.73709 -1.63515 -40.58796 -13.1588 -15.59415 47.1523 10.49067 35.46293 101.0005 4.85502 81.42545 -21.79016 115.8333 33.41309 -52.28945 106.93159 -37.41316 53.07594 7.96724 6.49662 -0.07994 -9.35788 -112.32437 19.43913 15.52559 6.77351 67.71493 -12.35024 -1.66527 -124.74845 19.76481 -17.3116 -7.06461
-0.05644 0.30627 -0.02327 198.92561 0 6.39482 21.29957 4.86438 -1.64084 -40.48275 -13.09556 -15.58485 46.58493 9.85236 37.17217 102.70351 4.89829 80.81598 -21.74804 115.91718 33.8227 -52.27362 107.14625 -37.08328 52.86924 8.04766 6.38444 0.08911 -9.30629 -112.21932 19.44078 15.39577 6.66539 67.68599 -12.34614 -1.85433 -124.93792 19.76364 -17.23361 -7.00218
